<svg id="The_Idea" data-name="The Idea" xmlns="http://www.w3.org/2000/svg" xmlns:xlink="http://www.w3.org/1999/xlink" width="183.253" height="183.007" viewBox="0 0 183.253 183.007">
  <defs>
    <linearGradient id="linear-gradient" x1="0.896" y1="1" x2="0.029" y2="-0.306" gradientUnits="objectBoundingBox">
      <stop offset="0" stop-color="#1f74f2"/>
      <stop offset="0.258" stop-color="#5d9fec"/>
      <stop offset="0.616" stop-color="#3a87ef"/>
      <stop offset="1" stop-color="#75b0ea"/>
    </linearGradient>
    <filter id="Path_553" x="0" y="54.123" width="183.253" height="128.884" filterUnits="userSpaceOnUse">
      <feOffset dx="2" dy="2" input="SourceAlpha"/>
      <feGaussianBlur result="blur"/>
      <feFlood/>
      <feComposite operator="in" in2="blur"/>
      <feComposite in="SourceGraphic"/>
    </filter>
    <filter id="Path_554" x="144.025" y="0" width="38.926" height="57.459" filterUnits="userSpaceOnUse">
      <feOffset dx="2" dy="2" input="SourceAlpha"/>
      <feGaussianBlur result="blur-2"/>
      <feFlood/>
      <feComposite operator="in" in2="blur-2"/>
      <feComposite in="SourceGraphic"/>
    </filter>
    <filter id="Path_555" x="13.629" y="25.934" width="38.88" height="57.352" filterUnits="userSpaceOnUse">
      <feOffset dx="2" dy="2" input="SourceAlpha"/>
      <feGaussianBlur result="blur-3"/>
      <feFlood/>
      <feComposite operator="in" in2="blur-3"/>
      <feComposite in="SourceGraphic"/>
    </filter>
  </defs>
  <g id="Group_722" data-name="Group 722" transform="translate(0 0)">
    <g transform="matrix(1, 0, 0, 1, 0, 0)" filter="url(#Path_553)">
      <path id="Path_553-2" data-name="Path 553" d="M181.253,240.052a3.578,3.578,0,0,1-3.271,1.276q-19.728-.035-39.457-.014H4.232a5.452,5.452,0,0,1-2.1-.081c-.762-.346-1.792-.992-1.9-1.639-.1-.607.847-1.4,1.369-2.076.117-.152.388-.187.6-.28-3.413-5.68-2.832-10.928,2.207-15.6C-2,215.846-.8,208.394,4.053,204.3c-1.257-2.3-2.936-4.39-3.593-6.763a10.331,10.331,0,0,1,9.351-13.077c6.53-.335,13.087-.143,19.632-.152,1.267,0,2.228.543,2.193,1.977s-1.006,1.859-2.287,1.858c-5.957,0-11.914-.034-17.871.014-4.279.035-7.283,2.647-7.527,6.41-.27,4.165,2.7,7.325,7.188,7.431,4.3.1,8.616-.113,12.913.08,3.016.135,5.71-.127,7.668-2.74a3.225,3.225,0,0,1,.685-.555c4.313-3.228,4.239-3.264,6.615-8.149a35.6,35.6,0,0,1,3.212-4.6,11.5,11.5,0,0,1-4.109-7c-.983-5.855,3.281-11.871,9.222-12.229,6.112-.368,12.259-.174,18.391-.2a1.858,1.858,0,0,1,2.116,1.9c0,1.363-.914,1.936-2.236,1.935-5.426,0-10.852-.032-16.278.014-3.869.033-6.483,2.03-7.3,5.434a6.843,6.843,0,0,0,5.687,8.291,13.4,13.4,0,0,0,1.764.1q20.082.008,40.164,0c3.9,0,6.635-1.993,7.382-5.295a6.791,6.791,0,0,0-6.281-8.447c-3.17-.222-6.366-.079-9.55-.094-1.828-.008-3.657-.014-5.485,0-1.316.009-2.256-.544-2.259-1.91s.983-1.928,2.264-1.933c3.892-.016,7.786.048,11.676-.061a4.506,4.506,0,0,0,2.437-1.011c2.54-1.992,4.992-4.1,7.44-6.127-6.144-4.614-5.763-13.659,2-17.484a71.417,71.417,0,0,1-4.335-7.015,37.817,37.817,0,0,1-3.5-9.351c-1.218-6.864,3.866-11.877,10.806-10.943a16.06,16.06,0,0,1,5.593,1.946c7.664,4.325,15.236,4.9,22.868-.006a12.561,12.561,0,0,1,8.838-1.719c5.607.807,8.724,5.118,7.593,10.85a44.948,44.948,0,0,1-2.621,7.464,1.769,1.769,0,0,1-2.565,1.131c-1.289-.591-1.292-1.629-.88-2.837a42.922,42.922,0,0,0,2.292-7.356c.476-3.228-1.493-5.2-4.782-5.477a9.528,9.528,0,0,0-6.09,1.378c-8.734,5.513-17.51,5.026-26.237.032-2.307-1.32-4.615-2.034-7.243-1.348a4.985,4.985,0,0,0-3.944,5.823c.542,4.212,2.879,7.646,4.765,11.313,2.278,4.427,5.38,6.091,10.505,5.756,7.987-.521,16.033-.111,24.054-.152a11.311,11.311,0,0,1,7.887,2.531,1.52,1.52,0,0,0,1.342.172c4.387-2.057,8.662-1.427,13.035.173a93.548,93.548,0,0,0,11.278,3.438,15.847,15.847,0,0,0,10.39-.923c1.271-.592,2.122.022,2.93.877v1.416a13.782,13.782,0,0,1-2.569,1.733,17.968,17.968,0,0,1-10.439.869c-4.511-1-8.923-2.488-13.325-3.925-2.921-.953-5.8-1.668-8.77-.45a1.781,1.781,0,0,0-.956,1.3c.019,1.451.263,2.9.428,4.419a5.2,5.2,0,0,0,.776.243,29.244,29.244,0,0,1,12.7,5.453,36.118,36.118,0,0,1,9.415,10.2c.733,1.18,1.044,2.355-.348,3.209-1.311.8-2.209.059-2.894-1.076-.3-.5-.631-1-.976-1.473-4.74-6.544-10.783-11.146-18.917-12.556a2.932,2.932,0,0,0-2.058.386,14.662,14.662,0,0,0-2.06,2.323c.305.195.807.5,1.294.827,9.881,6.634,15.469,15.892,16.319,27.744.815,11.344,1.165,22.721,1.839,34.076.323,5.438.06,10.624-4.608,15.033h2.409c6.543,0,13.087-.053,19.628.055,1.043.017,2.074.756,3.111,1.161Zm-82.43-2.715c.761.035,1.279.08,1.8.08q22.549,0,45.1,0c6.949-.01,11.547-4.924,11.2-11.909-.614-12.305-1.021-24.626-1.928-36.909-.911-12.334-7.207-21.3-18.31-26.8a7.964,7.964,0,0,0-3.375-.757c-8.961-.061-17.923.079-26.881-.076-5.287-.091-8.68,3.179-12.672,6.1,4.109,1.855,6.637,4.6,7.222,8.838.591,4.277-1.13,7.653-4.387,10.377a10.88,10.88,0,0,1,4.509,8.816,11.058,11.058,0,0,1-4.509,8.859,10.994,10.994,0,0,1,4.51,8.933,11.186,11.186,0,0,1-4.476,8.767c4.234,3.418,6.358,9.215,2.2,15.688M69.683,219.723c.831,0,1.523,0,2.216,0,6.366-.028,12.738.079,19.1-.139a6.663,6.663,0,0,0,6.257-6.878,6.906,6.906,0,0,0-6.243-6.761,19.91,19.91,0,0,0-2.119-.068c-4.716-.009-9.433,0-14.15-.023-1.288-.007-2.2-.578-2.147-2.007.048-1.334.95-1.8,2.156-1.812,2-.015,4.01,0,6.014-.012,3.477-.029,6.973.144,10.426-.164A6.779,6.779,0,0,0,96.2,191.468a7.058,7.058,0,0,0-6.445-3.326q-20.253,0-40.506.01a10.042,10.042,0,0,0-2.1.235,6.426,6.426,0,0,0-5.044,6.064c7.482-1.124,14.181.641,19.812,5.747,5.68,5.151,8.034,11.741,7.766,19.525M46.4,237.359a19.691,19.691,0,1,0-19.524-19.593A19.652,19.652,0,0,0,46.4,237.359m72.792-80.221c5.191,0,10.383.064,15.571-.043a9.484,9.484,0,0,0,4.046-.954,5.571,5.571,0,0,0,2.622-6.38,5.877,5.877,0,0,0-5.878-4.459c-4.364-.067-8.729-.02-13.094-.02-6.37,0-12.74-.028-19.11.011-4.082.025-6.691,2.778-6.35,6.579.278,3.111,2.829,5.233,6.447,5.257,5.249.035,10.5.009,15.748.01M59.769,237.42h1.879q11.4,0,22.809,0c2.063,0,4.132.074,6.186-.065a6.87,6.87,0,0,0-.15-13.735c-6.835-.121-13.674-.056-20.51-.008a1.639,1.639,0,0,0-1.258.837,27.563,27.563,0,0,1-8.956,12.973M23.258,223.571c-3.645,0-7.589,0-11.533,0a14.1,14.1,0,0,0-1.587.069A6.889,6.889,0,0,0,4.1,231.993c.8,3.364,3.458,5.389,7.31,5.413,6.835.043,13.67.014,20.505.01.332,0,.664-.047.927-.066a61.952,61.952,0,0,1-5.521-6.128,69.388,69.388,0,0,1-4.059-7.652m2.839-17.7c-1.89,0-3.407-.01-4.924,0-3.769.029-7.549-.1-11.3.154a6.579,6.579,0,0,0-5.92,6.251c-.208,3.327,1.916,6.807,5.1,7.083,4.6.4,9.251.1,13.99.1A24.2,24.2,0,0,1,26.1,205.873" transform="translate(0 -60.37)" fill="url(#linear-gradient)"/>
    </g>
    <g transform="matrix(1, 0, 0, 1, 0, 0)" filter="url(#Path_554)">
      <path id="Path_554-2" data-name="Path 554" d="M312.176,28.571c-1.056-.1-1.942-.107-2.8-.274-3.988-.779-6.084-5.54-3.707-8.822C309.923,13.6,314.3,7.821,318.745,2.092a5.667,5.667,0,0,1,8.823.036c4.4,5.685,8.746,11.421,12.967,17.242a5.776,5.776,0,0,1-4.041,9.013c-.7.1-1.408.088-2.394.144V51.963c0,.413,0,.825,0,1.239-.008,1.29-.517,2.238-1.916,2.257s-1.951-.9-1.96-2.2c-.009-1.239,0-2.477,0-3.715q0-11.058,0-22.116c0-2.309.51-2.814,2.781-2.837.885-.009,1.775.055,2.652-.028,1.8-.172,2.645-1.718,1.591-3.146q-6.2-8.391-12.554-16.667a1.839,1.839,0,0,0-3.152.047q-6.281,8.219-12.452,16.523c-1.121,1.512-.3,3.091,1.594,3.247.937.077,1.886.009,2.829.026,1.919.036,2.538.626,2.542,2.544.016,6.723.007,13.446.007,20.169,0,1.887-.014,3.774,0,5.661.013,1.413-.408,2.538-2.034,2.485-1.521-.05-1.859-1.165-1.857-2.487q.016-11.234,0-22.469V28.571" transform="translate(-160.64 0)" fill="url(#linear-gradient)"/>
    </g>
    <g transform="matrix(1, 0, 0, 1, 0, 0)" filter="url(#Path_555)">
      <path id="Path_555-2" data-name="Path 555" d="M36.311,83.262a22.688,22.688,0,0,1-2.42-.012,5.817,5.817,0,0,1-4.023-9.029c4.2-5.767,8.505-11.458,12.868-17.1a5.694,5.694,0,0,1,9.165.113c4.234,5.521,8.374,11.114,12.567,16.666a5.873,5.873,0,0,1-4.7,9.4c-.461,0-.921.053-1.571.094,0,3.3,0,6.529,0,9.761,0,1.062,0,2.124-.011,3.186-.017,1.248-.63,2.091-1.889,2.105a1.851,1.851,0,0,1-1.932-2.074c-.039-2.359-.022-4.719-.023-7.078,0-2.478-.031-4.956.014-7.433.034-1.818.668-2.4,2.49-2.442a9.006,9.006,0,0,0,1.939-.032c.955-.242,2.316-.433,2.661-1.09s-.121-2.022-.655-2.776c-2.35-3.319-4.854-6.529-7.3-9.778-1.455-1.931-2.883-3.883-4.372-5.786q-1.875-2.4-3.723.034C41.365,65.3,37.345,70.614,33.4,75.98a2.57,2.57,0,0,0-.406,2.2c.334.608,1.349.843,2.071,1.234.046.025.116.005.175,0,5.6-.221,4.914.519,4.924,5.136q.023,11.15,0,22.3c0,.589.184,1.318-.091,1.736-.454.69-1.22,1.634-1.841,1.624s-1.38-.958-1.829-1.655c-.272-.423-.088-1.148-.089-1.737q0-10.618,0-21.237v-2.32" transform="translate(-15.2 -28.93)" fill="url(#linear-gradient)"/>
    </g>
  </g>
  <path id="Path_556" data-name="Path 556" d="M84,164.226a2.391,2.391,0,0,1-2.472-2.42,2.459,2.459,0,0,1,2.367-2.553,2.565,2.565,0,0,1,2.608,2.535,2.517,2.517,0,0,1-2.5,2.438" transform="translate(-42.988 -83.969)" fill="url(#linear-gradient)"/>
  <path id="Path_557" data-name="Path 557" d="M237.9,262.548c0-1.438-.008-2.844,0-4.25.009-1.324.45-2.418,1.961-2.409s1.928,1.086,1.9,2.431-.005,2.691-.005,4.3c1.707,0,3.273-.024,4.838.006,1.668.032,2.631.812,2.5,2.061-.16,1.5-1.207,1.835-2.536,1.817q-3.8-.051-7.6,0c-3.663.052-6.358,2.584-6.384,5.946s2.679,5.925,6.315,6.028a25.359,25.359,0,0,1,4.224.21,9.661,9.661,0,0,1,7.84,9.4,9.76,9.76,0,0,1-7.451,9.732c-.505.131-1.023.217-1.741.366,0,1.469-.02,2.928.006,4.386.024,1.306-.484,2.281-1.848,2.316-1.477.037-2.009-1.01-2.018-2.36-.01-1.4,0-2.809,0-4.437-1.756,0-3.332-.006-4.907,0-1.256.006-2.278-.354-2.336-1.8-.062-1.544.966-2.027,2.3-2.042,2.887-.033,5.782.074,8.662-.085a5.747,5.747,0,0,0,5.464-6.015,5.845,5.845,0,0,0-5.737-5.777c-1.06-.041-2.125.024-3.182-.047a9.828,9.828,0,0,1-2.46-19.224c.67-.2,1.36-.341,2.194-.546" transform="translate(-120.594 -134.924)" fill="url(#linear-gradient)"/>
  <path id="Path_558" data-name="Path 558" d="M92.1,327.3c-.262,1.561.5,3.712-1.958,3.757-2.394.043-1.852-2.094-2.087-3.648a6.279,6.279,0,0,1-2.283-.215c-.669-.348-1.577-1.176-1.53-1.723a2.564,2.564,0,0,1,1.544-1.866,24.206,24.206,0,0,1,4.4-.15c2-.05,3.178-1.024,3.15-2.568s-1.227-2.666-3.218-2.472a6.441,6.441,0,0,1-3.024-12.381,1.927,1.927,0,0,0,1.006-1.284c.085-1.456.209-2.926,2.033-2.913,1.856.013,1.955,1.521,1.9,2.961a5.836,5.836,0,0,0,.09.722c.595.029,1.213.064,1.832.089,1.31.052,2.212.676,2.166,2.024-.042,1.236-.89,1.851-2.147,1.846-1.413,0-2.828-.027-4.24.013-1.75.05-2.784,1.015-2.784,2.522,0,1.527.986,2.4,2.791,2.483,4.063.176,6.383,1.7,7.208,4.718.958,3.509-.7,6.3-4.847,8.084" transform="translate(-43.792 -159.15)" fill="url(#linear-gradient)"/>
</svg>
