<svg xmlns="http://www.w3.org/2000/svg" xmlns:xlink="http://www.w3.org/1999/xlink" width="95.744" height="102.797" viewBox="0 0 95.744 102.797">
  <defs>
    <linearGradient id="linear-gradient" x1="0.225" y1="0.057" x2="0.868" y2="0.979" gradientUnits="objectBoundingBox">
      <stop offset="0" stop-color="#1f74f2"/>
      <stop offset="1" stop-color="#75b0ea"/>
    </linearGradient>
    <filter id="Union_23" x="0" y="0" width="95.744" height="102.797" filterUnits="userSpaceOnUse">
      <feOffset dx="2" dy="2" input="SourceAlpha"/>
      <feGaussianBlur result="blur"/>
      <feFlood/>
      <feComposite operator="in" in2="blur"/>
      <feComposite in="SourceGraphic"/>
    </filter>
  </defs>
  <g id="create_account" data-name="create account" transform="translate(0.499 0.5)">
    <path id="Union_22" data-name="Union 22" d="M70.346,96.48a18.429,18.429,0,0,1-6.73-1.967,3.593,3.593,0,0,0-1.572-.376c-11.7-.012-23.6-.015-35.1-.018q-11.487,0-22.972-.009a5.269,5.269,0,0,1-1.912-.268A3.117,3.117,0,0,1,.005,90.761q0-1.12,0-2.241c0-3.224-.01-6.559.047-9.84A17.346,17.346,0,0,1,1.7,71.87a1.708,1.708,0,0,1,3.222-.109,1.923,1.923,0,0,1-.091,1.479,19.949,19.949,0,0,0-1.415,8.8c.037,1.8.027,3.626.018,5.394,0,.795-.009,1.589-.009,2.383v.719h6.781c.011-.2.021-.4.021-.592q0-4.007,0-8.014V78.986c0-.067,0-.134,0-.2,0-.187,0-.381.011-.577a1.775,1.775,0,0,1,1.706-1.788h.021a1.742,1.742,0,0,1,1.683,1.837c.021,1.213.018,2.444.014,3.635q0,.713,0,1.426v7.2H58.515a18.44,18.44,0,0,1-4.478-14.456,18.139,18.139,0,0,1,7.712-13.1l-.4-.13c-1.017-.325-1.977-.633-2.941-.885a2.24,2.24,0,0,0-.493.424c-1.953,1.99-3.933,4.02-5.847,5.983L49.388,71.1c-1.936,1.982-3.643,2.031-5.706.166-.585-.529-1.173-1.056-1.792-1.608l-.679-.608-.626.561q-.942.844-1.872,1.684c-2.012,1.823-3.752,1.773-5.641-.159l-1.731-1.772c-2.228-2.276-4.533-4.631-6.774-6.976a.978.978,0,0,0-1.236-.293c-2.288.763-4.624,1.5-6.884,2.218l-1.98.628a15.624,15.624,0,0,0-5.708,3.1,4.49,4.49,0,0,1-.383.314,1.681,1.681,0,0,1-2.494-.265,1.8,1.8,0,0,1-.354-1.35,1.7,1.7,0,0,1,.758-1.129c.4-.276.808-.57,1.2-.856A17.27,17.27,0,0,1,11.627,62.3c4.313-1.546,8.753-2.95,13.047-4.307,1.5-.474,3.043-.962,4.562-1.451A2.294,2.294,0,0,1,30.5,56.4a.739.739,0,0,0,.609-.036.9.9,0,0,0,.283-.618,20.956,20.956,0,0,0,.1-3,1.079,1.079,0,0,0-.338-.292,21.035,21.035,0,0,1-9.626-12.179c-.1-.321-.183-.411-.584-.427a4.736,4.736,0,0,1-4.79-5.083c-.01-1.13.1-2.272.2-3.376.05-.545.1-1.11.139-1.662.021-.319.026-.65.03-.97,0-.2.007-.4.014-.607.034-1.035.038-2.1.041-3.12a46.106,46.106,0,0,1,.369-6.906A21.524,21.524,0,0,1,35.181.2a5.49,5.49,0,0,0,.564-.12c.1-.025.19-.048.287-.07L36.068,0H46.36L46.4.01c.587.15,1.189.292,1.771.429a40.5,40.5,0,0,1,3.962,1.075A19.319,19.319,0,0,1,59.817,6.69,1.794,1.794,0,0,1,60,9.265a1.617,1.617,0,0,1-1.175.566A1.949,1.949,0,0,1,57.4,9.166a17.463,17.463,0,0,0-7.1-4.614,16.123,16.123,0,0,0-3.9-.869,51.891,51.891,0,0,0-11.836.2c-7.154,1.185-13.442,7.86-14.317,15.194a46.845,46.845,0,0,0-.236,4.948c-.009.725-.018,1.473-.043,2.208,0,.16.007.33.021.525l.5-.047c.094-.429.189-.852.281-1.272.264-1.181.511-2.3.753-3.435a2.637,2.637,0,0,1,2.311-2.192c4.019-.86,7.881-.025,11.127.9,1.109.318,2.23.661,3.315.992,2.258.69,4.593,1.4,6.921,1.923A18.851,18.851,0,0,0,58.368,22.19a2.088,2.088,0,0,1,1.906-.206,2.234,2.234,0,0,1,1.067,1.671c.159.739.274,1.474.4,2.251.041.261.082.526.126.795l.587.069c0-.427,0-.852,0-1.273,0-1.241,0-2.413,0-3.608a18.607,18.607,0,0,0-1.478-7.218,3.8,3.8,0,0,1-.2-.582,1.762,1.762,0,0,1,1-2.195,1.661,1.661,0,0,1,2.177.967,21.175,21.175,0,0,1,1.858,7.32c.055.9.061,1.82.068,2.706,0,.65.01,1.323.034,1.98.044,1.2.1,2.429.155,3.615.092,1.992.187,4.051.227,6.079a4.866,4.866,0,0,1-3.631,5.171.378.378,0,0,0-.053.019.663.663,0,0,1-.362.05c-1.035-.2-1.263.3-1.677,1.463l-.027.074a20.259,20.259,0,0,1-8.791,10.8c-.754.455-.954.793-.855,1.449a5.038,5.038,0,0,1,.028.933c-.007.207-.013.4,0,.595.062,1.016.267,1.218,1.285,1.261a5.592,5.592,0,0,1,1.419.3q2.126.674,4.249,1.353c2.538.811,5.161,1.649,7.747,2.454a2.213,2.213,0,0,0,1.2.013,17.454,17.454,0,0,1,16.314,3.435,18.623,18.623,0,0,1,6.544,15.825,18.376,18.376,0,0,1-6.314,12.45,17.589,17.589,0,0,1-11.43,4.351C71.4,96.557,70.872,96.532,70.346,96.48ZM61.6,67.671a14.986,14.986,0,0,0-4.283,10.524A14.731,14.731,0,0,0,71.765,93.05h.067A14.15,14.15,0,0,0,82,88.73a15.131,15.131,0,0,0,.051-21.053,14.189,14.189,0,0,0-10.227-4.391H71.8A14.176,14.176,0,0,0,61.6,67.671ZM52.064,60.1c-2.285,1.847-4.516,3.675-6.878,5.61L43.9,66.762l.49.436c.612.544,1.189,1.057,1.747,1.6.277.27.369.295.719-.07,1.789-1.855,3.617-3.729,5.387-5.542q1.216-1.245,2.431-2.493l-.281-.09c-.656-.213-1.274-.413-1.9-.582a.379.379,0,0,0-.1-.011A.592.592,0,0,0,52.064,60.1ZM29.987,60c-.653.19-1.3.4-1.991.623l-.213.069.991,1.021c2.411,2.485,4.688,4.831,7.029,7.2a.614.614,0,0,0,.327-.016c.667-.554,1.315-1.143,2-1.766l.4-.366-1.1-.9c-2.464-2.014-4.792-3.915-7.179-5.846a.377.377,0,0,0-.168-.032A.364.364,0,0,0,29.987,60Zm3.894-1.54q.611.5,1.214.994c2.039,1.671,3.965,3.249,5.944,4.822a.824.824,0,0,0,.493-.106c1.633-1.3,3.275-2.647,4.863-3.95l1.061-.871c.3-.242.587-.49.895-.751l.185-.156a7.113,7.113,0,0,1-1.089-4.267,20.221,20.221,0,0,1-12.471,0A7.052,7.052,0,0,1,33.881,58.458Zm-8.53-35.374c-.494.063-.663.219-.783.726a35.05,35.05,0,0,0-.4,12.345,17.12,17.12,0,0,0,33.991.723,47.923,47.923,0,0,0,.26-6.191c0-.8,0-1.635.013-2.45a16.645,16.645,0,0,0-.082-1.675q-.017-.212-.034-.429a.255.255,0,0,0-.036.012,24.6,24.6,0,0,1-16.048.426c-1.524-.432-3.065-.892-4.556-1.339-1.743-.522-3.546-1.062-5.327-1.554a18.631,18.631,0,0,0-4.992-.719A16.077,16.077,0,0,0,25.352,23.084Zm36.527,13.2a.95.95,0,0,0,.486-.241,1.631,1.631,0,0,0,.49-1.161l.006-.561c.011-.884.021-1.8-.013-2.689a1.254,1.254,0,0,0-.969-1.318ZM19.638,31.313a30.1,30.1,0,0,0,.023,3.952.935.935,0,0,0,.9.968V30.318C19.783,30.5,19.658,30.963,19.638,31.313ZM71.81,88.747c-1.042,0-1.7-.758-1.718-1.979-.02-1.428-.017-2.878-.014-4.283q0-1,0-1.989c0-.07-.006-.144-.016-.246H67.554c-1.173,0-2.345,0-3.518,0-1.822-.007-2.22-.952-2.233-1.744a1.622,1.622,0,0,1,.419-1.2,2.341,2.341,0,0,1,1.767-.577c1.466,0,2.933,0,4.435,0h1.62c0-.009,0-.018,0-.026.016-.229.03-.445.031-.652q0-1.133,0-2.265c0-1.19,0-2.421.009-3.631.01-1.136.571-1.866,1.463-1.9a2.653,2.653,0,0,1,1.664.808,1.573,1.573,0,0,1,.29,1.18c0,.052,0,.1,0,.152.011,1.384.01,2.791.009,4.151v2.187h4.228l.646,0c.507,0,1.031-.006,1.549.009A1.761,1.761,0,0,1,81.843,78.4a1.708,1.708,0,0,1-.436,1.235,2,2,0,0,1-1.459.6c-1.314.025-2.647.02-3.938.016l-1.626,0h-.872v3.135q0,.5,0,1.006c0,.776.006,1.578-.007,2.368-.021,1.241-.653,1.985-1.69,1.987Z" transform="translate(2.294 3.24)" fill="#171c20" stroke="rgba(0,0,0,0)" stroke-width="1"/>
    <g transform="matrix(1, 0, 0, 1, -0.5, -0.5)" filter="url(#Union_23)">
      <path id="Union_23-2" data-name="Union 23" d="M72.707,99.717a19.048,19.048,0,0,1-6.956-2.033,3.713,3.713,0,0,0-1.625-.389c-12.094-.012-24.391-.015-36.282-.018q-11.872,0-23.743-.009a5.446,5.446,0,0,1-1.976-.277,3.222,3.222,0,0,1-2.12-3.185q0-1.157,0-2.316c0-3.332-.01-6.779.048-10.17a17.928,17.928,0,0,1,1.706-7.038,1.765,1.765,0,0,1,3.331-.113A1.987,1.987,0,0,1,4.993,75.7a20.619,20.619,0,0,0-1.462,9.091c.038,1.86.028,3.748.019,5.575,0,.821-.009,1.643-.009,2.463v.743h7.009c.012-.2.022-.408.022-.612q0-4.142,0-8.283V81.637c0-.069,0-.139,0-.208,0-.193,0-.393.012-.6a1.835,1.835,0,0,1,1.763-1.848.109.109,0,0,1,.022,0,1.8,1.8,0,0,1,1.739,1.9c.022,1.254.019,2.526.015,3.757q0,.737,0,1.474v7.444H60.478A19.059,19.059,0,0,1,55.85,78.618a18.748,18.748,0,0,1,7.97-13.543l-.418-.134c-1.051-.336-2.043-.654-3.04-.915a2.315,2.315,0,0,0-.509.439c-2.018,2.057-4.064,4.155-6.043,6.184l-2.764,2.833c-2,2.048-3.765,2.1-5.9.172-.6-.547-1.212-1.091-1.852-1.662l-.7-.628-.647.58q-.973.873-1.935,1.741c-2.08,1.884-3.878,1.833-5.83-.164l-1.789-1.831c-2.3-2.353-4.685-4.787-7-7.21a1.011,1.011,0,0,0-1.277-.3c-2.365.788-4.779,1.554-7.115,2.292l-2.046.65a16.148,16.148,0,0,0-5.9,3.209,4.641,4.641,0,0,1-.4.324,1.738,1.738,0,0,1-2.578-.274,1.856,1.856,0,0,1-.365-1.4A1.757,1.757,0,0,1,6.5,67.814c.414-.285.835-.589,1.243-.885A17.85,17.85,0,0,1,12.017,64.4c4.458-1.6,9.046-3.049,13.485-4.452,1.546-.49,3.146-.995,4.715-1.5a2.371,2.371,0,0,1,1.3-.152.764.764,0,0,0,.63-.038.932.932,0,0,0,.292-.639,21.66,21.66,0,0,0,.106-3.1,1.115,1.115,0,0,0-.349-.3,21.741,21.741,0,0,1-9.949-12.587c-.1-.332-.189-.425-.6-.442A4.895,4.895,0,0,1,16.7,35.935c-.01-1.168.1-2.348.2-3.489.051-.564.106-1.147.144-1.718.022-.33.026-.672.031-1,0-.209.007-.417.015-.627.035-1.07.04-2.166.043-3.225a47.654,47.654,0,0,1,.382-7.138A22.246,22.246,0,0,1,36.361.2a5.675,5.675,0,0,0,.583-.124c.1-.026.2-.05.3-.072L37.279,0H47.916l.043.011c.606.155,1.229.3,1.83.443a41.856,41.856,0,0,1,4.1,1.111,19.968,19.968,0,0,1,7.94,5.35,1.854,1.854,0,0,1,.185,2.662,1.671,1.671,0,0,1-1.214.585,2.015,2.015,0,0,1-1.465-.687,18.049,18.049,0,0,0-7.342-4.768,16.664,16.664,0,0,0-4.035-.9,53.632,53.632,0,0,0-12.233.209c-7.394,1.225-13.893,8.123-14.8,15.7a48.419,48.419,0,0,0-.244,5.114c-.009.749-.019,1.522-.044,2.282,0,.166.007.341.022.543l.52-.048c.1-.443.2-.88.291-1.314.273-1.221.528-2.375.778-3.551a2.726,2.726,0,0,1,2.388-2.265c4.154-.889,8.145-.026,11.5.934,1.146.329,2.3.683,3.426,1.025,2.334.713,4.747,1.45,7.153,1.988a19.484,19.484,0,0,0,13.614-1.492,2.158,2.158,0,0,1,1.97-.212,2.309,2.309,0,0,1,1.1,1.727c.164.764.283,1.524.41,2.327.043.27.085.544.131.821l.606.071c0-.442,0-.88,0-1.316,0-1.283,0-2.494,0-3.729a19.231,19.231,0,0,0-1.528-7.46,3.922,3.922,0,0,1-.211-.6,1.822,1.822,0,0,1,1.03-2.268,1.717,1.717,0,0,1,2.25,1A21.885,21.885,0,0,1,68,20.86c.057.933.063,1.881.07,2.8,0,.672.01,1.367.035,2.047.045,1.245.1,2.511.16,3.736.1,2.059.194,4.187.235,6.283a5.029,5.029,0,0,1-3.753,5.344.392.392,0,0,0-.054.02.685.685,0,0,1-.374.051c-1.07-.211-1.3.31-1.734,1.512l-.028.077a20.939,20.939,0,0,1-9.086,11.159c-.779.47-.986.82-.884,1.5a5.206,5.206,0,0,1,.029.965c-.007.214-.013.417,0,.615.065,1.05.276,1.258,1.328,1.3a5.78,5.78,0,0,1,1.466.31q2.2.7,4.392,1.4c2.623.838,5.334,1.7,8.007,2.536a2.287,2.287,0,0,0,1.242.014,18.04,18.04,0,0,1,16.861,3.551A19.248,19.248,0,0,1,92.68,82.432,18.993,18.993,0,0,1,86.154,95.3a18.179,18.179,0,0,1-11.813,4.5C73.8,99.8,73.25,99.772,72.707,99.717ZM63.669,69.942a15.488,15.488,0,0,0-4.427,10.877A15.226,15.226,0,0,0,74.173,96.173h.069a14.624,14.624,0,0,0,10.508-4.466,15.638,15.638,0,0,0,.053-21.76,14.665,14.665,0,0,0-10.57-4.538h-.021A14.652,14.652,0,0,0,63.669,69.942Zm-9.858-7.826c-2.362,1.91-4.668,3.8-7.109,5.8L45.371,69l.506.451c.633.562,1.229,1.093,1.805,1.653.286.279.382.3.743-.072,1.85-1.917,3.739-3.854,5.568-5.729q1.257-1.286,2.513-2.577l-.291-.093c-.678-.22-1.317-.427-1.968-.6a.391.391,0,0,0-.1-.011A.612.612,0,0,0,53.811,62.115Zm-22.818-.1c-.675.2-1.347.413-2.058.644-.073.023-.147.047-.22.071l1.025,1.055c2.492,2.568,4.845,4.993,7.264,7.445a.634.634,0,0,0,.338-.017c.69-.573,1.359-1.182,2.068-1.825l.417-.378-1.141-.931c-2.547-2.081-4.953-4.047-7.42-6.042A.39.39,0,0,0,31.092,62,.376.376,0,0,0,30.993,62.011Zm4.025-1.592q.632.515,1.255,1.028c2.108,1.727,4.1,3.358,6.143,4.984a.852.852,0,0,0,.509-.11c1.688-1.343,3.385-2.735,5.026-4.083l1.1-.9c.307-.25.606-.506.925-.776l.191-.161a7.352,7.352,0,0,1-1.126-4.41,20.9,20.9,0,0,1-12.889,0A7.289,7.289,0,0,1,35.018,60.42ZM26.2,23.859c-.511.065-.685.226-.809.751a36.227,36.227,0,0,0-.415,12.759,17.694,17.694,0,0,0,35.132.748,49.533,49.533,0,0,0,.269-6.4c0-.83,0-1.689.013-2.532a17.207,17.207,0,0,0-.085-1.732q-.018-.219-.035-.443a.263.263,0,0,0-.037.012,25.426,25.426,0,0,1-16.587.44c-1.575-.446-3.168-.922-4.709-1.384-1.8-.54-3.665-1.1-5.506-1.607a19.256,19.256,0,0,0-5.16-.743A16.617,16.617,0,0,0,26.2,23.859ZM63.955,37.5a.981.981,0,0,0,.5-.249,1.685,1.685,0,0,0,.506-1.2l.006-.58c.012-.913.022-1.857-.013-2.779a1.3,1.3,0,0,0-1-1.362ZM20.3,32.364a31.109,31.109,0,0,0,.023,4.084.967.967,0,0,0,.934,1V31.336C20.447,31.524,20.318,32,20.3,32.364ZM74.22,91.725c-1.077,0-1.758-.784-1.776-2.045-.021-1.475-.018-2.975-.015-4.426q0-1.029,0-2.056c0-.072-.006-.149-.016-.255H69.821c-1.212,0-2.423,0-3.636,0-1.883-.008-2.294-.984-2.307-1.8a1.677,1.677,0,0,1,.433-1.237,2.419,2.419,0,0,1,1.826-.6c1.515,0,3.031,0,4.584,0l1.675,0c0-.009,0-.018,0-.027.016-.237.031-.46.032-.674q0-1.171,0-2.341c0-1.23,0-2.5.009-3.753.01-1.174.59-1.929,1.512-1.968a2.742,2.742,0,0,1,1.72.835,1.626,1.626,0,0,1,.3,1.219c0,.054,0,.107,0,.157.012,1.43.01,2.885.009,4.291V79.3h4.37c.228,0,.446,0,.668,0,.524,0,1.066-.006,1.6.009a1.82,1.82,0,0,1,1.97,1.727,1.765,1.765,0,0,1-.451,1.277,2.062,2.062,0,0,1-1.507.618c-1.358.026-2.736.021-4.07.017q-.839,0-1.681,0h-.9v3.24q0,.52,0,1.04c0,.8.006,1.631-.007,2.448-.022,1.283-.675,2.051-1.747,2.054Z" transform="translate(0.5 0.5)" stroke="rgba(0,0,0,0)" stroke-width="1" fill="url(#linear-gradient)"/>
    </g>
  </g>
</svg>
