<svg xmlns="http://www.w3.org/2000/svg" xmlns:xlink="http://www.w3.org/1999/xlink" width="131.169" height="123.191" viewBox="0 0 131.169 123.191">
  <defs>
    <linearGradient id="linear-gradient" x1="0.352" y1="0.109" x2="0.924" y2="0.908" gradientUnits="objectBoundingBox">
      <stop offset="0" stop-color="#1f74f2"/>
      <stop offset="1" stop-color="#75b0ea"/>
    </linearGradient>
    <filter id="Invite_Donors" x="0" y="0" width="131.169" height="123.191" filterUnits="userSpaceOnUse">
      <feOffset dy="2" input="SourceAlpha"/>
      <feGaussianBlur stdDeviation="3" result="blur"/>
      <feFlood/>
      <feComposite operator="in" in2="blur"/>
      <feComposite in="SourceGraphic"/>
    </filter>
  </defs>
  <g transform="matrix(1, 0, 0, 1, 0, 0)" filter="url(#Invite_Donors)">
    <path id="Invite_Donors-2" data-name="Invite Donors" d="M12.637,98.369a1.629,1.629,0,0,0-1.648-.905c-2.863.055-5.727.024-8.59.02-1.785,0-2.39-.553-2.392-2.189Q0,88.153.006,81.009c.012-4.754,3.3-8.169,8.374-8.725.142-.015.28-.04.572-.084-4.678-3.74-4.319-9.327-.989-12.52a9.539,9.539,0,0,1,12.884-.142c3.239,2.962,4.128,8.572-.783,12.645.524.087.978.158,1.428.236,4.347.763,7.4,4.083,7.431,8.2a1.76,1.76,0,0,0,1.1,1.783,11.371,11.371,0,0,1,5.924,12.309,12.288,12.288,0,0,1-10.024,9.289,14.652,14.652,0,0,1-2.378.2A12.652,12.652,0,0,1,12.637,98.369Zm2.008-6.063c-.157,4.29,3.252,8.142,8.763,8.4,4.342-.029,8.776-2.8,8.986-8.08.162-4.059-2.877-8.214-8.7-8.425q-.175-.006-.349-.006C19,84.194,14.835,87.1,14.644,92.306ZM9.582,75.691C5.923,75.7,3.7,77.782,3.691,81.2q-.01,5.879,0,11.755c0,.338.035.678.054,1.022h7.09a11.4,11.4,0,0,1,3.653-9.941,13.4,13.4,0,0,1,10.7-3.382,5.139,5.139,0,0,0-5.44-4.958q-2.138-.02-4.277-.018C13.507,75.68,11.544,75.688,9.582,75.691Zm4.833-15.142a5.007,5.007,0,1,0,.119,9.986,5,5,0,1,0-.051-9.986Zm6.134,36.7c-1.446-1.2-2.771-2.535-4.146-3.814.917-.873,1.77-1.685,2.842-2.706.737.873,1.431,1.694,2.192,2.594,2.273-2.144,4.322-4.079,6.5-6.134.9.835,1.711,1.544,2.45,2.313.125.13.045.619-.124.776-2.426,2.293-4.866,4.572-7.344,6.815a1.989,1.989,0,0,1-1.319.544A1.619,1.619,0,0,1,20.549,97.246ZM32.543,73.771,47.478,60.01l-.1-.182c-.8.126-1.6.254-2.4.374-.767.113-1.535.216-2.367.334l-.618-3.273,8.415-1.392c.778-.129,1.551-.286,2.336-.384,1.4-.176,2.418.688,2.194,1.976-.579,3.308-1.241,6.6-1.894,10.033l-3.536-.541c.256-1.49.506-2.951.757-4.408L35.357,76.462C34.309,75.457,33.5,74.688,32.543,73.771Zm24.712-2.683q.655-1.477,1.307-2.959c19.6,7.2,38.464-2.308,45.853-15.6a32.166,32.166,0,0,0-8.105-40.649A38.332,38.332,0,0,0,51.375,9.648C37.9,18.5,31.254,36.575,40.5,53L37.47,54.521C29.676,42.147,30.441,22.729,45.3,9.883,60.258-3.05,83.049-3.315,98.665,9.239a35.108,35.108,0,0,1,6.467,48.68C96.986,68.927,84.3,73.953,72.308,73.953A39.8,39.8,0,0,1,57.255,71.088ZM65.6,65.543c-1.629,0-2.263-.588-2.27-2.088-.012-2.137,0-4.271,0-6.406,0-3.565,1.118-5.14,4.63-6.524-2.593-3.406-2.525-6.462.193-8.73a6.682,6.682,0,0,1,8.451-.006c2.723,2.284,2.792,5.357.185,8.75,3.389,1.086,4.8,3.345,4.662,6.609-.089,2.1-.008,4.2-.02,6.3-.007,1.5-.641,2.092-2.265,2.1q-3.391,0-6.782,0T65.6,65.543Zm4-11.7c-1.315.029-2.347.662-2.426,1.787-.152,2.137-.045,4.288-.045,6.449h10.6c0-2.06.056-4.014-.018-5.964a2.367,2.367,0,0,0-2.581-2.274q-1.344-.031-2.691-.031Q71.017,53.814,69.6,53.847Zm.122-7.707a2.668,2.668,0,1,0,2.756-2.4l-.1,0A2.651,2.651,0,0,0,69.718,46.14Zm17.554,2.588c-1.607,0-2.23-.6-2.235-2.12-.01-2.205,0-4.411,0-6.618,0-3.288,1.279-5.03,4.576-6.24-2.522-4.195-2.3-7.039.71-9.125a6.683,6.683,0,0,1,8.339.663c2.389,2.3,2.341,5.414-.19,8.42,3.475,1.308,4.668,2.968,4.668,6.446,0,2.17.01,4.34,0,6.512-.007,1.446-.649,2.057-2.187,2.06q-3.418.007-6.837.007T87.273,48.728Zm3.991-11.692a2.279,2.279,0,0,0-2.469,2.023c-.114,2.045-.031,4.1-.031,6.2h10.68c0-2.042.045-3.965-.016-5.884a2.356,2.356,0,0,0-2.517-2.334Q95.53,37,94.149,37,92.706,37,91.263,37.036Zm.165-7.629a2.668,2.668,0,0,0,5.316.018A2.627,2.627,0,0,0,94.1,26.921h0A2.639,2.639,0,0,0,91.428,29.408ZM43.883,48.73c-1.627,0-2.26-.59-2.268-2.091-.01-2.135.066-4.273-.018-6.406C41.469,37,42.931,34.8,46.253,33.724c-2.6-3.408-2.535-6.475.185-8.744a6.684,6.684,0,0,1,8.451,0c2.72,2.285,2.789,5.345.183,8.748,3.389,1.086,4.8,3.346,4.66,6.612-.087,2.1-.008,4.2-.02,6.3-.007,1.5-.641,2.089-2.267,2.092q-3.391,0-6.782,0T43.883,48.73Zm3.951-11.693a2.269,2.269,0,0,0-2.463,2.029c-.114,2.045-.031,4.1-.031,6.187H56.018c0-2.046.048-3.968-.015-5.889a2.358,2.358,0,0,0-2.525-2.328Q52.09,37,50.7,37,49.265,37,47.834,37.036Zm2.827-10.116a2.633,2.633,0,0,0-2.656,2.5,2.668,2.668,0,0,0,5.316-.006,2.632,2.632,0,0,0-2.649-2.493ZM65.594,33.6c-1.627,0-2.262-.588-2.268-2.089-.01-2.135.064-4.273-.018-6.406-.129-3.238,1.334-5.432,4.655-6.511-2.6-3.408-2.535-6.474.185-8.742a6.688,6.688,0,0,1,8.453,0c2.72,2.285,2.789,5.347.183,8.75,3.389,1.086,4.8,3.346,4.66,6.61-.089,2.1-.008,4.2-.02,6.3-.007,1.5-.643,2.091-2.268,2.092q-3.39.006-6.781.006T65.594,33.6Zm4-11.695c-1.31.029-2.347.665-2.426,1.789-.153,2.137-.045,4.288-.045,6.446H77.728c0-2.06.054-4.014-.02-5.964A2.366,2.366,0,0,0,75.124,21.9q-1.332-.032-2.666-.031Q71.025,21.869,69.593,21.9Zm2.776-10.113a2.632,2.632,0,0,0-2.652,2.5,2.668,2.668,0,0,0,5.316-.012,2.632,2.632,0,0,0-2.65-2.49Z" transform="translate(9.5 7.5)" stroke="rgba(0,0,0,0)" stroke-width="1" fill="url(#linear-gradient)"/>
  </g>
</svg>
