<svg xmlns="http://www.w3.org/2000/svg" xmlns:xlink="http://www.w3.org/1999/xlink" width="111.976" height="105.453" viewBox="0 0 111.976 105.453">
  <defs>
    <linearGradient id="linear-gradient" x1="0.5" x2="0.842" y2="0.853" gradientUnits="objectBoundingBox">
      <stop offset="0" stop-color="#1f74f2"/>
      <stop offset="1" stop-color="#75b0ea"/>
    </linearGradient>
    <filter id="Make_Donation" x="0" y="0" width="111.976" height="105.453" filterUnits="userSpaceOnUse">
      <feOffset dx="2" dy="2" input="SourceAlpha"/>
      <feGaussianBlur result="blur"/>
      <feFlood/>
      <feComposite operator="in" in2="blur"/>
      <feComposite in="SourceGraphic"/>
    </filter>
  </defs>
  <g transform="matrix(1, 0, 0, 1, 0, 0)" filter="url(#Make_Donation)">
    <path id="Make_Donation-2" data-name="Make Donation" d="M25.864,102.72q-1.942-1.826-3.811-3.731a2.241,2.241,0,0,1-.147-3.157,2.124,2.124,0,0,1,3.084-.05c.8.719,1.547,1.5,2.194,2.127,1.582-1.529,3.131-2.971,4.619-4.476,1.6-1.623,3.156-3.3,4.718-4.964,1.674-1.785,1.685-3.759-.028-5.474q-8.323-8.329-16.683-16.618c-1.484-1.474-3.395-1.685-4.721-.333-3.327,3.39-6.552,6.888-9.745,10.265,1.912,2.043,3.753,4.017,5.6,5.982.53.565,1.108,1.082,1.622,1.661a2.279,2.279,0,0,1,0,3.168,2.1,2.1,0,0,1-3-.03c-1.823-1.784-3.6-3.621-5.391-5.436C3.114,80.578,2.051,79.509,1,78.427c-1.307-1.343-1.334-2.4-.075-3.753Q6.2,69.033,11.488,63.412A7.539,7.539,0,0,1,21.2,61.878c.13.069.265.129.4.193,1.069-1.28,2.039-2.592,3.154-3.756,6.764-7.064,14.76-9.54,24.238-7.1a45.4,45.4,0,0,0,9.492,1.238c5.069.2,10.152.127,15.228.028,3.528-.068,6.563.8,8.712,3.964.36-.351.666-.639.962-.937q5.538-5.62,11.073-11.243a9.317,9.317,0,0,1,9.5-2.573c5.653,1.479,7.946,8.714,4.17,13.407-5.956,7.4-12.044,14.686-18.163,21.944A12.8,12.8,0,0,1,80.2,81.782c-9.651.181-19.307.145-28.958.293-3.154.049-6.305.395-9.588.615.084.521.124.848.192,1.169a7.588,7.588,0,0,1-1.662,7.017c-3.663,3.994-7.413,7.9-11.16,11.813a2.174,2.174,0,0,1-1.564.766A2.352,2.352,0,0,1,25.864,102.72Zm-.912-37.567c4.492,4.448,8.933,8.859,13.4,13.234a1.583,1.583,0,0,0,1.137.239c2.543-.253,5.077-.742,7.621-.8,7.016-.16,14.039-.149,21.058-.2,3.433-.027,6.868-.038,10.3-.077a11.742,11.742,0,0,0,9.567-4.878c3.589-4.574,7.382-8.98,11.088-13.458,1.829-2.208,3.694-4.387,5.475-6.635,2.018-2.543.844-6.248-2.125-6.71a5.457,5.457,0,0,0-5.048,1.574c-4.317,4.431-8.678,8.818-13,13.247a2.521,2.521,0,0,0-.643,1.293c-.778,5.17-4.043,8.085-9.166,8.1-4.541.013-9.081,0-13.622,0a6.99,6.99,0,0,1-1.028-.042,2.094,2.094,0,0,1-1.771-2,2.066,2.066,0,0,1,1.59-2.257,6.351,6.351,0,0,1,1.363-.1q6.7-.009,13.394,0a4.836,4.836,0,0,0,3.332-.977,4.513,4.513,0,0,0,1.385-4.868,4.281,4.281,0,0,0-4.274-2.911c-5.267-.019-10.532-.052-15.8.008A42.746,42.746,0,0,1,47.205,55.4a19.03,19.03,0,0,0-5.1-.714C34.683,54.687,28.669,59.34,24.952,65.153Zm-9.83,26.423a2.2,2.2,0,1,1,4.391-.027,2.264,2.264,0,0,1-2.206,2.227H17.25A2.161,2.161,0,0,1,15.122,91.576ZM17.1,81.8a5.985,5.985,0,0,1,.08-11.965A5.985,5.985,0,0,1,17.125,81.8Zm-1.452-6.078a1.427,1.427,0,0,0,1.305,1.623,1.469,1.469,0,0,0,1.681-1.356,1.546,1.546,0,0,0-1.363-1.71c-.044,0-.088-.006-.131-.006A1.5,1.5,0,0,0,15.647,75.724Zm33.75-7.5a2.2,2.2,0,0,1,2.162-2.245A2.145,2.145,0,0,1,53.8,68.11a2.2,2.2,0,0,1-2.158,2.245l-.09,0A2.156,2.156,0,0,1,49.4,68.223ZM63,46.789c-12.527-.02-22.748-10.485-22.759-23.3C40.23,10.521,50.483-.031,63.062,0S85.821,10.535,85.8,23.441,75.6,46.789,63.034,46.789ZM44.54,23.48a18.5,18.5,0,1,0,36.986-.087C81.5,13.017,73.245,4.469,63.218,4.439h-.057A18.77,18.77,0,0,0,44.54,23.48ZM60.652,36.62a2.632,2.632,0,0,0-1.037-1.06,8.3,8.3,0,0,1-4.44-7.63,2.125,2.125,0,0,1,4.245-.182c.038.271.054.546.1.815.222,1.34.72,2.564,2.071,2.989a4.008,4.008,0,0,0,3.753-.9,2.781,2.781,0,0,0,.355-3.8,4.489,4.489,0,0,0-3-1.743,11.615,11.615,0,0,1-2.97-.774,6.216,6.216,0,0,1-4.144-5.911,7.065,7.065,0,0,1,3.922-6.768,1.715,1.715,0,0,0,1.121-1.288A1.85,1.85,0,0,1,62.463,8.87a2.182,2.182,0,0,1,2.14,1.265,3.076,3.076,0,0,0,1.124,1.117C68.055,12.5,69.666,14.2,69.57,16.78c.021,1.87-.758,2.875-2.025,2.941a2.136,2.136,0,0,1-2.238-2.147c-.119-1.463-.633-2.144-1.832-2.424a3.223,3.223,0,0,0-3.208,1.562,2.328,2.328,0,0,0,1.25,3.6,7.551,7.551,0,0,0,1.777.395,8.332,8.332,0,0,1,7.124,6.355,7.226,7.226,0,0,1-4.554,8.344,2.338,2.338,0,0,0-1.351,1.206,3.016,3.016,0,0,1-1.857,1.252,1.476,1.476,0,0,1-.333.039A2.066,2.066,0,0,1,60.652,36.62Z" fill="url(#linear-gradient)"/>
  </g>
</svg>
