<?xml version="1.0" encoding="UTF-8"?>
<svg id="Layer_1" data-name="Layer 1" xmlns="http://www.w3.org/2000/svg" viewBox="0 0 2662.77 1080">
  <defs>
    <style>
      .cls-1 {
        fill: #fff;
      }
    </style>
  </defs>
  <path class="cls-1" d="M2622.38,482.04c-40.88-39.21-118.02-42.1-151.91,7.11-.64,.91-.98,2.52-3.43,1.96,0-8.02-.25-16.18,.1-24.34,.22-5.14-1.36-7.01-6.75-6.92-17.76,.29-35.54,.32-53.3-.01-5.78-.1-7.53,1.6-7.52,7.46,.16,111.26,.16,222.53-.01,333.79-.01,6.16,2.25,7.37,7.74,7.29,18.19-.27,36.38-.09,54.57-.1,8.8-.01,8.83-.03,8.83-8.55,1.04-37.46-2.01-75.81,1.12-112.76,28.1,38.62,86.62,48.12,128.91,25.27,40.05-21.05,54.79-60.83,61.8-102.7,1.79-45.39-5.53-94.83-40.14-127.49Zm-90.06,189.37c-66.21,2.85-75.91-84.39-54.86-131.36,9.2-22.22,27.13-33.56,51.92-33.6,45.31-1.31,63.55,45.76,62.16,84.49,1.22,36.56-16.31,81.13-59.21,80.47Z"/>
  <path class="cls-1" d="M623.63,224.3c71.1,15.84,50.6,118.24-20.56,104.4-65.5-16.74-46.3-112.26,20.56-104.4Z"/>
  <path class="cls-1" d="M1525.94,373.66c-19.09-9.7-39.56-13.57-60.72-13.67-52.04-.23-104.1-.09-156.14-.1q-9.93,0-9.93,9.88c0,92.5-.04,184.99,.06,277.49,.01,5.21-.62,7.95-7.09,7.93-60.9-1.22-123.59,1.72-183.62-1.14,23.58-38.07,70.87-57.29,105.81-84.6,143.21-106.14-14.34-279.77-146.81-182.62-2.46,2.11-4.22,3.35-7.44,.66-58.76-47.98-167.49-20.9-241.21-27.71-5.14-.01-6.47,1.88-6.47,6.64,.09,114.25,.09,228.5-.03,342.75,0,5.17,1.56,6.99,6.87,6.92,20.95-.25,41.89-.09,62.83-.1,8.41-.01,8.45-.03,8.45-8.31,.01-36.95,0-73.91,.01-110.87,0-8.62,.04-8.62,8.87-8.65,28.14-.05,56.27,.14,84.41-.25,64.67,1.04,117.27-52.5,112.5-115.55-.23-32.43,29.75-58.7,61.47-50.76,39.59,5.14,52.39,55.58,31.03,85.73-10.67,16.02-25.47,27.46-41.39,37.74-58.84,38.96-130.22,80.54-132.21,159.76-.56,11.05-1,11.03,9.76,11.03h171.37v.13h172.01q9.35,0,9.36-9.17c.01-37.17,.1-74.34-.1-111.51-.04-5.49,1.46-7.33,7.13-7.27,33.57-.42,67.39,1.79,100.84-1.35,107.36-5.88,134.8-167.44,40.38-213.05Zm-505.32,104.42c-3.19,64.59-80.35,46.61-124.78,49.31-4.95,.13-5.37-2.63-5.35-6.43,.06-15.61,.03-31.24,.03-46.85s.04-31.67-.03-47.5c-.01-3.59,.5-6.07,5.09-5.94,46.51,1.77,129.9-14.29,125.03,57.4Zm486.61,3.04c-4.83,61.28-81.1,43.34-123.56,46.3-4.88,.06-6.1-1.85-6.03-6.36,.19-15.82,.08-31.64,.08-47.46s.03-31.22-.03-46.84c-.01-3.44,.1-6.2,4.87-6.08,48.3,1.38,133.11-13.62,124.68,60.44Z"/>
  <path class="cls-1" d="M1922.41,539.9c0,56.18,0,112.35,0,168.53q0,9.2-9.49,9.22c-20.52,0-41.05-.16-61.57,.1-5.73,.07-7.67-1.64-7.64-7.55,.21-45.83,.12-91.66,.11-137.48q0-8.65-8.7-8.67c-42.53,0-85.06,.12-127.58-.14-6.39-.04-8.35,1.75-8.31,8.18,.24,45.62,.13,91.23,.12,136.85,0,8.66-.04,8.69-8.9,8.7-19.89,.02-39.78,.01-59.67,0q-9.48,0-9.5-9.29c0-112.78-.01-225.55,0-338.33,.02-8.5,.03-8.53,8.26-8.54,20.31-.02,40.62-.02,60.94,0,8.84,0,8.87,.03,8.88,8.65,.01,39.7,0,79.41,0,119.11q0,8.94,9.11,8.95c42.32,0,84.63,0,126.95,0,8.38,0,8.41-.03,8.41-8.35,.01-39.7,0-79.41,0-119.11q0-9.23,9.53-9.25c20.31,0,40.63,.22,60.93-.13,6.28-.11,8.29,1.53,8.26,8.11-.27,56.81-.15,113.62-.15,170.43Z"/>
  <path class="cls-1" d="M.28,608.92c0-80.44,0-160.87,0-241.31,0-7.84,.03-7.86,6.93-4.43,41.64,20.7,83.24,41.49,124.97,62,4.84,2.38,6.64,5.08,6.63,10.55-.17,108.73-.15,217.45-.03,326.18,0,4.94-1.34,8.01-5.68,10.78-44.14,26.92-87.68,58.62-131.95,83.47-2.5-81.37-.02-165.1-.87-247.23Z"/>
  <path class="cls-1" d="M702.34,539.84c0,65.03,0,130.05,0,195.08,0,8.16-.03,8.18-7.36,5.15-40.64-16.79-81.23-33.69-121.95-50.27-5.01-2.04-6.44-4.75-6.44-9.87,.13-100.49,.13-200.99,0-301.48,0-5.34,1.53-7.74,6.91-9.13,40.52-10.49,80.94-21.34,121.41-32.04,7.4-1.96,7.45-1.9,7.45,6.23,0,65.45,0,130.9,0,196.35Z"/>
  <path class="cls-1" d="M2107.76,453.12c-152.18-12.07-190.15,226.94-45.73,265.93,64.35,17.56,139.68-6.08,160.08-74.62,1.8-5.36,.36-6.75-4.87-6.67-13.74,.16-27.5,.36-41.25-.06-19.87-2.08-14.82,9.83-27.74,18.83-30.12,25.18-87.26,19.89-100.63-20.46-1.3-7.76-12.07-31.76,2.71-30.27,28.35,.28,56.71,.13,85.06,.13,28.77-.01,57.54-.15,86.32,.11,5.61,.05,7.41-2.01,7.57-7.24,4.52-71.5-44.28-147.4-121.52-145.68Zm43.72,108.23c-17.34-.18-34.68-.08-52.02-.06-16.49,0-32.99,.03-49.48-.01-7.33-.01-7.95-.84-6.55-8.16,5.2-51.24,85.24-65.5,106.07-18.47,1.64,5.65,14.29,28.16,1.98,26.7Z"/>
  <path class="cls-1" d="M186.01,588.09c0-48.98,0-97.96,0-146.94,0-8.11,.03-8.08,7.46-5.03,24.15,9.91,49.64,13.66,75.37,16.18,17.05,1.67,34.17,2.46,51.31,2.32,4.74-.04,6.23,1.65,6.23,6.27-.1,69.25-.09,138.5,0,207.75,0,3.86-1.2,6.16-4.77,7.91-43.29,21.18-86.56,42.41-129.73,63.85-6.53,3.24-5.89-.64-5.88-4.71,.01-49.19,0-98.39,0-147.58Z"/>
  <path class="cls-1" d="M511.99,528.17c0,42.44,0,84.88,0,127.32q0,10.02-9.69,6.33c-81.12-28.78-50.13-35.65-129.68,1.06-5.01,2.32-6.49,1.59-6.48-4.08,.12-67.35,.12-134.71,0-202.06,0-4.78,1.46-7.02,6.19-8.5,47.43-14.94,96.23-31.1,138.61-56.37,3.04,44.11,.04,91.2,1.07,136.3Z"/>
  <path class="cls-1" d="M2272.74,539.27c0-56.39,0-112.78,0-169.16q0-8.59,8.74-8.61c18.2-.01,36.39,.14,54.59-.09,5.48-.07,7.82,1.21,7.81,7.37-.17,113.83-.17,227.66,0,341.5,0,5.99-2.03,7.56-7.68,7.48-18.62-.26-37.24-.34-55.85,.03-6.34,.13-7.72-2.2-7.71-8.08,.19-56.81,.11-113.62,.11-170.43Z"/>
  <path class="cls-1" d="M314.07,371.54c-.39,69.3-105.88,69.06-105.92-.3,.5-69.48,105.88-69,105.92,.3Z"/>
  <path class="cls-1" d="M424.28,277.34c69.57,.51,69.15,105.64-.59,105.52-69.26-.26-69.13-105.76,.59-105.52Z"/>
  <path class="cls-1" d="M102.71,265.78c69.52-.1,69.07,105.8-.16,105.56-69.14-.06-69.51-105.74,.16-105.56Z"/>
  <path class="cls-1" d="M1577.89,639.92s-.1,49.72,.02,72.07c.01,2.01,0,4.12,0,4.12l-78.3,.36-.04-76.54h78.32Z"/>
</svg>