<svg xmlns="http://www.w3.org/2000/svg" xmlns:xlink="http://www.w3.org/1999/xlink" width="130.599" height="122.261" viewBox="0 0 130.599 122.261">
  <defs>
    <linearGradient id="linear-gradient" x1="0.288" y1="0.084" x2="0.95" y2="0.943" gradientUnits="objectBoundingBox">
      <stop offset="0" stop-color="#1f74f2"/>
      <stop offset="1" stop-color="#75b0ea"/>
    </linearGradient>
    <filter id="Union_26" x="0" y="0" width="130.599" height="122.261" filterUnits="userSpaceOnUse">
      <feOffset dy="3" input="SourceAlpha"/>
      <feGaussianBlur stdDeviation="3" result="blur"/>
      <feFlood/>
      <feComposite operator="in" in2="blur"/>
      <feComposite in="SourceGraphic"/>
    </filter>
  </defs>
  <g transform="matrix(1, 0, 0, 1, 0, 0)" filter="url(#Union_26)">
    <path id="Union_26-2" data-name="Union 26" d="M43.374,103.259c-1.83,0-2.449-.568-2.45-2.249q-.008-7.155,0-14.311c0-1.579.224-1.881,1.82-2.489V79.154c-2.422,0-4.811.056-7.2-.016a54.27,54.27,0,0,1-7.28-.48,54.458,54.458,0,0,1-6.87-1.9c-2.235-.687-4-2.354-6.3-2.942-.747,1.675-1.1,1.893-2.789,1.895-3.332,0-6.665.006-10,0C.654,75.7.007,75.1.005,73.543q-.01-9.9,0-19.8c0-1.542.654-2.136,2.33-2.141q5.114-.012,10.229,0c1.664,0,2.3.607,2.317,2.157.008.961,0,1.923,0,3.04,5.494-.309,10.656.425,14.967,3.3a34.858,34.858,0,0,0,2.906-2.412,2.663,2.663,0,0,0,.7-1.694c.053-5.129.159-10.261,0-15.385A17.555,17.555,0,0,1,46.67,23.094a2.576,2.576,0,0,0,.447-.229A12.631,12.631,0,0,1,44.657,16c-.069-1.648.6-2.274,2.406-2.276q8.775,0,17.549,0c1.718,0,2.4.646,2.333,2.237a12.755,12.755,0,0,1-2.472,6.928c.8.282,1.561.5,2.281.814,7.16,3.084,11.062,8.288,11.32,15.588.2,5.8.058,11.619.031,17.429a1.843,1.843,0,0,0,.785,1.515c1.03.932,1.886,2.028,2.879,3.128a22.185,22.185,0,0,1,14.953-4.585c0-1.175-.02-2.21,0-3.244.031-1.272.713-1.917,2.093-1.925q5.346-.026,10.693,0c1.373.008,2.079.66,2.083,1.936q.02,10.114,0,20.227c0,1.27-.715,1.923-2.089,1.931-3.564.019-7.129.06-10.691-.038a8.783,8.783,0,0,1-2.535-1.012,29.082,29.082,0,0,1-10.491,3.924,51.358,51.358,0,0,1-6.46.552c-3.015.091-6.036.024-9.014.024L68.474,84.19c1.947.469,2.206.781,2.206,2.706q0,7.049,0,14.1c0,1.689-.619,2.266-2.433,2.266l-12.436,0Zm1.33-3.49H66.88V87.848H44.7Zm1.89-15.45c5.665,0,11.24.011,16.812-.027a1.337,1.337,0,0,0,1.01-.616c.824-2.1,2.039-4.205,2.228-6.374.4-4.522.261-9.088.3-13.635a1.731,1.731,0,0,0-1.828-1.724,1.766,1.766,0,0,0-1.861,1.807c-.036,1.683-.047,3.369,0,5.052a2.9,2.9,0,0,1-.937,2.323A8.644,8.644,0,0,0,59.7,76.174c-.164,1.19-.191,2.4-.28,3.586H55.866A13.452,13.452,0,0,1,59.42,68.9H46.594ZM19.571,71.966c.434.295.934.505,1.4.759,6.809,3.7,14.306,2.971,21.739,2.952V72.226H29.818v-3.4c2.986,0,5.918.006,8.849,0,1.381,0,2.213-.643,2.244-1.678.031-1.071-.834-1.754-2.269-1.76-2.089-.009-4.182-.041-6.272.014a3.547,3.547,0,0,1-2.584-.954c-4.191-3.629-9.259-4.621-14.831-4.15V70.628A4.225,4.225,0,0,1,16,70.491,6.381,6.381,0,0,1,19.571,71.966Zm61.1-3.142c.371,0,.742.031,1.135.049v3.391q-5.572,1.212-11.081,2.408V75.71c3.142,0,6.235.02,9.325,0a27.67,27.67,0,0,0,14.921-4.385c.534-.34,1.108-.623,1.666-.933V60.236A17.836,17.836,0,0,0,83.78,64.36a4.034,4.034,0,0,1-2.9,1.037c-2.788-.056-5.575-.03-8.363-.013a1.72,1.72,0,1,0,.025,3.432c1.776.011,3.552.009,5.328.008h2.8ZM3.784,72.218h7.3V55.134h-7.3Zm96.717,0h7.3V55.133h-7.3ZM37.2,39.844q-.013,8.178,0,16.356a4.927,4.927,0,0,1-2.671,4.589,6.551,6.551,0,0,0-1.047.933c1.969.213,3.748.19,5.53.22a5.4,5.4,0,0,1,4.916,2.728,1.293,1.293,0,0,0,1.344.718c4.108-.02,8.216-.011,12.323-.011h1.932c-.269-3.328.712-5.9,4.467-6.766,2.584-.6,4.614.535,6.446,3.33h7.148c-1.317-1.779-3.045-1.749-4.728-1.717a10.11,10.11,0,0,1-2.127-.107V56.789h3.569a3.391,3.391,0,0,0,.086-.461c0-5.811.1-11.624-.034-17.432-.142-6.415-5.618-12.09-12.525-12.887a59.679,59.679,0,0,0-7.329-.237c-.69.006-1.381.013-2.067.013h-.02C43.732,25.784,37.217,31.82,37.2,39.844ZM48.578,17.166a10.661,10.661,0,0,0,2.5,4.923,1.025,1.025,0,0,0,.7.235q4,.024,8,0a1.06,1.06,0,0,0,.719-.2A10.349,10.349,0,0,0,63,17.214c-.324-.019-.591-.047-.859-.047l-6.737,0Zm5.4,39.517V53.366h-3.66V49.881h5.968c.347,0,.7.006,1.046,0,1.361-.027,2.195-.69,2.184-1.735s-.839-1.689-2.217-1.7c-.539-.006-1.078,0-1.617,0q-.76,0-1.52,0c-3.1-.025-5.531-2.006-5.78-4.7-.256-2.775,1.788-5.112,4.9-5.6.186-.03.376-.045.632-.075V32.749h3.721v3.317h3.66V39.55H55.317c-.347,0-.7,0-1.046,0-1.364.027-2.193.687-2.181,1.736s.841,1.688,2.215,1.7c.569.006,1.14,0,1.712,0,.474,0,.951,0,1.427,0,3.1.024,5.528,2,5.779,4.7.258,2.772-1.784,5.107-4.9,5.6-.186.03-.376.045-.658.078v3.31Zm27.96-25.8V27.571h5.435v3.314Zm-57.7,0v-3.3h5.45v3.3ZM73.211,11.067l3.8-3.5c.685.621,1.529,1.388,2.281,2.069-1.293,1.209-2.557,2.4-3.832,3.587C74.711,12.507,73.912,11.742,73.211,11.067ZM32.254,9.7C33.076,9,33.945,8.269,34.728,7.61l3.689,3.415c-.719.612-1.586,1.349-2.469,2.1ZM54,5.04V0h3.577V5.04Z" transform="translate(9.49 6.5)" stroke="rgba(0,0,0,0)" stroke-width="1" fill="url(#linear-gradient)"/>
  </g>
</svg>
